<svg width="20" height="20" viewBox="0 0 47 47" fill="none" xmlns="http://www.w3.org/2000/svg">
<path d="M14.1914 22.2266C13.6391 22.2266 13.1914 22.6743 13.1914 23.2266C13.1914 23.7788 13.6391 24.2266 14.1914 24.2266V22.2266ZM40.9637 24.2266C41.516 24.2266 41.9637 23.7788 41.9637 23.2266C41.9637 22.6743 41.516 22.2266 40.9637 22.2266V24.2266ZM14.1914 24.2266H40.9637V22.2266H14.1914V24.2266Z" fill="#111"/>
<path d="M4.91277 23.0228L16.7493 14.547C17.2787 14.1679 18.015 14.5463 18.015 15.1974V31.2546C18.015 31.9058 17.2787 32.2842 16.7493 31.9051L4.91276 23.4293C4.7735 23.3296 4.7735 23.1225 4.91277 23.0228Z" fill="#111"/>
</svg>
