<svg width="20" height="20" viewBox="0 0 47 47" fill="none" xmlns="http://www.w3.org/2000/svg">
<path d="M33.3125 22.5723C33.8648 22.5723 34.3125 23.02 34.3125 23.5723C34.3125 24.1246 33.8648 24.5723 33.3125 24.5723V22.5723ZM6.54021 24.5723C5.98793 24.5723 5.54021 24.1246 5.54021 23.5723C5.54021 23.02 5.98793 22.5723 6.54021 22.5723V24.5723ZM33.3125 24.5723H6.54021V22.5723H33.3125V24.5723Z" fill="#111"/>
<path d="M42.5911 23.3685L30.7546 14.8927C30.2252 14.5136 29.4889 14.892 29.4889 15.5431V31.6003C29.4889 32.2515 30.2252 32.6299 30.7546 32.2508L42.5911 23.775C42.7304 23.6753 42.7304 23.4682 42.5911 23.3685Z" fill="#111"/>
</svg>
